<?xml version="1.0" encoding="UTF-8"?>
<!DOCTYPE svg PUBLIC "-//W3C//DTD SVG 1.1//EN" "http://www.w3.org/Graphics/SVG/1.1/DTD/svg11.dtd">
<!-- Creator: CorelDRAW -->
<svg xmlns="http://www.w3.org/2000/svg" xml:space="preserve" width="512px" height="512px" version="1.1" style="shape-rendering:geometricPrecision; text-rendering:geometricPrecision; image-rendering:optimizeQuality; fill-rule:evenodd; clip-rule:evenodd"
viewBox="0 0 512 512"
 xmlns:xlink="http://www.w3.org/1999/xlink"
 xmlns:xodm="http://www.corel.com/coreldraw/odm/2003">
 <defs>
  <style type="text/css">
   <![CDATA[
    .fil1 {fill:#00CCFF}
    .fil0 {fill:#1B74B9}
    .fil2 {fill:#F9F9F9}
   ]]>
  </style>
 </defs>
 <g id="Layer_x0020_1">
  <metadata id="CorelCorpID_0Corel-Layer"/>
  <path class="fil0" d="M351 117c-33.14,0 -33.14,-48 0,-48 31.72,0 31.72,48 0,48zm-236.3 296.62l-7.69 -0.05 0 44.43 34 0c9.23,0 9.23,14 0,14l-34 0 0 33c0,9.23 -14,9.23 -14,0l0 -33 -35 0c-9.24,0 -9.24,-14 0,-14l35 0 0 -44.51 -85 -0.49c-6,-0.02 -9.23,-7.09 -5.31,-11.6l161.9 -182.9c1.09,-1.27 10.78,-12.45 26.4,-21.9l0 -75.6c0.01,-66.7 54.31,-121 121,-121 63.34,0 115.48,48.96 120.59,111l6.42 0c39.7,0 72,32.3 72,72 -0.01,3.9 -3.1,7 -7,7l-92.68 0c-3.34,4.79 -7.01,9.33 -11,13.58 7.61,87.68 -14.75,205.42 -121.32,210.26l0 44.16 35 0c9.23,0 9.23,14 0,14l-35 0 0 33c-0.01,9.23 -14.01,9.23 -14.01,0l0 -33 -34.99 0c-9.24,0 -9.24,-14 0,-14l34.99 0 0 -44 -82.88 0c-0.6,0.03 -1.21,0.07 -1.82,0.1 -0.74,-0.75 -61.95,0.76 -65.6,-0.48zm90.31 -224.14c23.11,-9.57 46.75,-8.46 68.89,3.32 9.66,4.79 26.14,14.63 37.37,35.2 28.95,0 58,-11.89 76.32,-31.35 2.5,-2.82 11.31,-12.12 12.55,-15.05 0.36,-1.81 1.4,-3.35 2.85,-4.35 10.04,-16.19 15.89,-35.24 16.01,-55.63 -1.48,-5.41 -1.35,-1.57 -0.19,-6.92 -3.27,-56.08 -49.92,-100.7 -106.81,-100.7 -58.99,0 -106.99,48 -106.99,107l0 68.48zm112.25 52.41c16.9,51.67 -16.64,128.18 -79.14,158.11l33.89 0c105.64,0 118.2,-117.41 115.09,-184.2 -19.37,15.37 -43.53,24.96 -69.84,26.09zm-293.75 157.21l156.42 0.9c41.09,-2.01 74.28,-19.11 98.57,-50.7 39.02,-50.77 42.28,-118.55 -10.9,-144.2 -24.92,-13.35 -47.66,-8.17 -64.34,0.55 -1.03,1.16 -2.44,1.97 -4.05,2.25 -6.63,2.42 -23.5,18.37 -24,19.7l-151.7 171.5zm409.42 -274.1c-0.6,18.31 -5.28,35.61 -13.17,51l76.84 0c-3.5,-28.7 -28,-51 -57.6,-51l-6.07 0zm-81.93 -42c-14.69,0 -14.69,20 0,20 13.21,0 13.21,-20 0,-20z"/>
  <path class="fil1" d="M351 117c-33.14,0 -33.14,-48 0,-48 31.72,0 31.72,48 0,48zm-145.99 72.48c23.11,-9.57 46.75,-8.46 68.89,3.32 9.66,4.79 26.14,14.63 37.37,35.2 28.95,0 58,-11.89 76.32,-31.35 2.5,-2.82 11.31,-12.12 12.55,-15.05 0.36,-1.81 1.4,-3.35 2.85,-4.35 10.04,-16.19 15.89,-35.24 16.01,-55.63 -1.48,-5.41 -1.35,-1.57 -0.19,-6.92 -3.27,-56.08 -49.92,-100.7 -106.81,-100.7 -58.99,0 -106.99,48 -106.99,107l0 68.48z"/>
  <path class="fil2" d="M351 83c-14.69,0 -14.69,20 0,20 13.21,0 13.21,-20 0,-20z"/>
  <path class="fil2" d="M432.93 125c-0.6,18.31 -5.28,35.61 -13.17,51l76.84 0c-3.5,-28.7 -28,-51 -57.6,-51l-6.07 0z"/>
  <path class="fil1" d="M272.01 400c105.64,0 118.2,-117.41 115.09,-184.2 -19.37,15.37 -43.53,24.96 -69.84,26.09 16.9,51.67 -16.64,128.18 -79.14,158.11l33.89 0z"/>
  <path class="fil1" d="M278.5 349.3c39.02,-50.77 42.28,-118.55 -10.9,-144.2 -24.92,-13.35 -47.66,-8.17 -64.34,0.55 -1.03,1.16 -2.44,1.97 -4.05,2.25 -6.63,2.42 -23.5,18.37 -24,19.7l-151.7 171.5 156.42 0.9c41.09,-2.01 74.28,-19.11 98.57,-50.7z"/>
 </g>
</svg>
