<svg aria-hidden="true" style="position: absolute; width: 0; height: 0; overflow: hidden;" version="1.1" xmlns="http://www.w3.org/2000/svg" xmlns:xlink="http://www.w3.org/1999/xlink">
<defs>
<symbol id="icon-logo" viewBox="0 0 32 32">
<path d="M29.082 0.314h-4.009c-1.237 0-2.24 0.983-2.24 2.195v3.929c0 1.212 1.003 2.195 2.24 2.195h4.009c1.237 0 2.24-0.983 2.24-2.195v-3.929c0-1.212-1.003-2.195-2.24-2.195z"></path>
<path d="M6.73 23.040h-4.318c-1.332 0-2.412 0.983-2.412 2.195v3.929c0 1.213 1.080 2.195 2.412 2.195h4.318c1.332 0 2.412-0.983 2.412-2.195v-3.929c0-1.212-1.080-2.195-2.412-2.195z"></path>
<path d="M6.25 11.582h-4.009c-1.237 0-2.24 0.983-2.24 2.195v3.929c0 1.212 1.003 2.195 2.24 2.195h4.009c1.237 0 2.24-0.983 2.24-2.195v-3.929c0-1.212-1.003-2.195-2.24-2.195z"></path>
<path d="M17.766 22.978h-4.009c-1.237 0-2.24 0.983-2.24 2.195l-0 3.929c0 1.212 1.003 2.195 2.241 2.195h4.009c1.237 0 2.24-0.983 2.24-2.195v-3.929c0-1.212-1.003-2.195-2.24-2.195z"></path>
<path d="M6.25 0.086h-4.009c-1.237 0-2.24 0.983-2.24 2.195v3.929c0 1.212 1.003 2.195 2.24 2.195h4.009c1.237 0 2.24-0.983 2.24-2.195v-3.929c0-1.212-1.003-2.195-2.24-2.195z"></path>
<path d="M18.076 11.697h-4.009c-1.237 0-2.24 0.983-2.24 2.195v3.929c0 1.212 1.003 2.195 2.24 2.195h4.009c1.237 0 2.24-0.983 2.24-2.195v-3.929c0-1.212-1.003-2.195-2.24-2.195z"></path>
<path d="M29.333 22.978h-4.010c-1.237 0-2.24 0.983-2.24 2.195v3.929c0 1.212 1.003 2.195 2.24 2.195h4.009c1.237 0 2.24-0.983 2.24-2.195v-3.929c0-1.212-1.003-2.195-2.24-2.195z"></path>
<path d="M17.591 0.224h-4.009c-1.237 0-2.24 0.983-2.24 2.195v3.929c0 1.212 1.003 2.195 2.24 2.195h4.009c1.237 0 2.24-0.984 2.24-2.196v-3.929c0-1.212-1.003-2.195-2.24-2.195z"></path>
<path d="M29.044 11.926h-4.010c-1.237 0-2.24 0.983-2.24 2.195v3.929c0 1.212 1.003 2.195 2.24 2.195h4.009c1.237 0 2.24-0.983 2.24-2.195v-3.929c0-1.212-1.003-2.195-2.24-2.195z"></path>
</symbol>
<symbol id="icon-icons8-home" viewBox="0 0 32 32">
<path fill="#c8ede6" style="fill: var(--color1, #c8ede6)" d="M27.8 18.095c0.096-0.197 0.181-0.404 0.255-0.622 0.843-2.486-0.432-5.465-3.115-6.184-0.29-3.643-2.85-6.142-5.741-6.568-3.309-0.488-6.34 1.614-7.349 4.955-1.216-0.431-2.4-0.378-3.517 0.274-0.507 0.234-0.97 0.58-1.386 1.035-0.61 0.668-1.007 1.51-1.169 2.398-0.239 0.038-0.475 0.076-0.696 0.155-1.293 0.464-2.108 1.418-2.332 2.855-0.139 0.895 0.142 1.788 0.299 2.148 0.619 1.426 2.055 2.234 3.514 2.020 0.073-0.011 0.178 0.022 0.241 0.075 0.077 2.278 1.183 4.293 2.843 5.444 2.663 1.847 6.089 1.278 8.25-1.255 0.926 0.947 2.028 1.407 3.323 1.24 1.287-0.166 2.287-0.876 3.016-2.032 0.337 0.091 0.656 0.221 0.987 0.257 1.293 0.141 2.278-0.42 3.114-1.536 0.476-0.636 0.569-1.646 0.574-2.033 0.012-1.042-0.413-1.991-1.11-2.628z"></path>
<path fill="#fdfcef" style="fill: var(--color2, #fdfcef)" d="M23.356 20.908c0 0 3.741 0 3.764 0 0.864 0 1.564-0.7 1.564-1.564 0-0.754-0.533-1.383-1.243-1.531 0.008-0.066 0.014-0.133 0.014-0.201 0-0.895-0.725-1.62-1.62-1.62-0.528 0-0.996 0.254-1.292 0.645-0.076-0.996-0.965-1.764-2.006-1.637-0.761 0.093-1.391 0.682-1.531 1.436-0.045 0.242-0.040 0.476 0.004 0.697-0.204-0.22-0.495-0.358-0.818-0.358-0.592 0-1.076 0.461-1.114 1.044-0.269-0.060-0.561-0.056-0.869 0.060-0.589 0.221-1.008 0.775-1.033 1.404-0.035 0.892 0.678 1.627 1.563 1.627 0.067 0 0.303 0 0.358 0h3.249z"></path>
<path fill="#472b29" style="fill: var(--color3, #472b29)" d="M27.119 21.068h-3.764c-0.088 0-0.16-0.072-0.16-0.16s0.072-0.16 0.16-0.16h3.764c0.774 0 1.404-0.63 1.404-1.404 0-0.661-0.469-1.239-1.116-1.375-0.081-0.017-0.136-0.093-0.126-0.176 0.007-0.060 0.012-0.119 0.012-0.181 0-0.805-0.655-1.46-1.46-1.46-0.46 0-0.885 0.212-1.164 0.582-0.040 0.053-0.108 0.076-0.173 0.057s-0.109-0.075-0.114-0.141c-0.033-0.441-0.249-0.855-0.592-1.136-0.347-0.284-0.785-0.41-1.235-0.355-0.693 0.085-1.266 0.622-1.393 1.306-0.040 0.214-0.038 0.428 0.004 0.636 0.014 0.070-0.020 0.141-0.084 0.174s-0.142 0.019-0.19-0.033c-0.184-0.198-0.433-0.307-0.701-0.307-0.502 0-0.921 0.393-0.954 0.894-0.003 0.047-0.026 0.090-0.064 0.117s-0.086 0.038-0.131 0.028c-0.269-0.059-0.524-0.042-0.779 0.053-0.534 0.201-0.908 0.707-0.929 1.26-0.015 0.386 0.124 0.752 0.391 1.030s0.627 0.431 1.012 0.431h3.606c0.088 0 0.16 0.072 0.16 0.16s-0.072 0.16-0.16 0.16h-3.606c-0.473 0-0.915-0.188-1.243-0.529s-0.499-0.79-0.48-1.264c0.027-0.68 0.483-1.302 1.136-1.547 0.256-0.096 0.521-0.128 0.79-0.096 0.12-0.583 0.639-1.018 1.25-1.018 0.219 0 0.433 0.058 0.622 0.163 0-0.124 0.011-0.247 0.034-0.371 0.152-0.82 0.838-1.463 1.669-1.565 0.538-0.067 1.062 0.085 1.477 0.425 0.321 0.263 0.549 0.624 0.652 1.022 0.324-0.293 0.742-0.456 1.188-0.456 0.981 0 1.78 0.798 1.78 1.78 0 0.027-0.001 0.053-0.002 0.079 0.721 0.216 1.231 0.889 1.231 1.653-0.001 0.951-0.774 1.724-1.725 1.724z"></path>
<path fill="#fdfcef" style="fill: var(--color2, #fdfcef)" d="M22.449 17.461c-0.579-0.038-1.077 0.362-1.112 0.892-0.004 0.066-0.002 0.131 0.008 0.194-0.112-0.126-0.277-0.212-0.467-0.224-0.347-0.023-0.647 0.206-0.691 0.518-0.063-0.017-0.129-0.029-0.197-0.033-0.506-0.033-0.942 0.316-0.973 0.781z"></path>
<path fill="#472b29" style="fill: var(--color3, #472b29)" d="M19.017 19.67c-0.002 0-0.004 0-0.005-0-0.044-0.003-0.077-0.041-0.075-0.085 0.034-0.508 0.509-0.89 1.058-0.855 0.043 0.003 0.087 0.008 0.131 0.017 0.088-0.31 0.402-0.527 0.757-0.502 0.136 0.009 0.263 0.051 0.372 0.122 0-0.006 0.001-0.012 0.001-0.018 0.038-0.574 0.575-1.014 1.197-0.967 0.044 0.003 0.077 0.041 0.075 0.085s-0.045 0.081-0.085 0.074c-0.538-0.029-0.995 0.332-1.027 0.819-0.004 0.059-0.002 0.118 0.007 0.176 0.005 0.035-0.013 0.069-0.045 0.085s-0.070 0.007-0.094-0.020c-0.102-0.115-0.252-0.187-0.412-0.197-0.297-0.012-0.568 0.178-0.606 0.45-0.003 0.023-0.016 0.043-0.035 0.056s-0.043 0.016-0.065 0.010c-0.061-0.017-0.122-0.027-0.181-0.031-0.459-0.027-0.86 0.287-0.888 0.707-0.002 0.042-0.037 0.075-0.079 0.075z"></path>
<path fill="#fdfcef" style="fill: var(--color2, #fdfcef)" d="M27.753 17.996c-0.544-0.256-1.172-0.075-1.404 0.405-0.029 0.060-0.050 0.121-0.064 0.184z"></path>
<path fill="#472b29" style="fill: var(--color3, #472b29)" d="M26.284 18.664c-0.006 0-0.012-0.001-0.018-0.002-0.043-0.010-0.070-0.053-0.060-0.096 0.016-0.069 0.039-0.137 0.070-0.2 0.25-0.519 0.928-0.717 1.511-0.443 0.040 0.019 0.057 0.067 0.038 0.107s-0.067 0.057-0.107 0.038c-0.504-0.238-1.086-0.073-1.299 0.367-0.026 0.053-0.045 0.109-0.058 0.167-0.008 0.037-0.041 0.062-0.078 0.062z"></path>
<path fill="#fff" style="fill: var(--color4, #fff)" d="M5.293 15.546h-3.21c-0.088 0-0.16-0.072-0.16-0.16s0.072-0.16 0.16-0.16h3.21c0.088 0 0.16 0.072 0.16 0.16s-0.072 0.16-0.16 0.16zM6.215 15.546h-0.463c-0.088 0-0.16-0.072-0.16-0.16s0.072-0.16 0.16-0.16h0.463c0.088 0 0.16 0.072 0.16 0.16s-0.071 0.16-0.16 0.16zM7.513 15.546h-0.815c-0.088 0-0.16-0.072-0.16-0.16s0.072-0.16 0.16-0.16h0.815c0.088 0 0.16 0.072 0.16 0.16s-0.072 0.16-0.16 0.16zM7.513 16.143h-3.077c-0.088 0-0.16-0.072-0.16-0.16s0.072-0.16 0.16-0.16h3.077c0.088 0 0.16 0.072 0.16 0.16s-0.072 0.16-0.16 0.16zM3.881 16.143h-0.186c-0.088 0-0.16-0.072-0.16-0.16s0.072-0.16 0.16-0.16h0.186c0.088 0 0.16 0.072 0.16 0.16s-0.071 0.16-0.16 0.16zM3.121 16.143h-0.466c-0.088 0-0.16-0.072-0.16-0.16s0.072-0.16 0.16-0.16h0.466c0.088 0 0.16 0.072 0.16 0.16s-0.071 0.16-0.16 0.16zM6.044 14.949h-1.609c-0.088 0-0.16-0.072-0.16-0.16s0.072-0.16 0.16-0.16h1.609c0.088 0 0.16 0.072 0.16 0.16s-0.072 0.16-0.16 0.16zM6.044 14.353h-0.402c-0.088 0-0.16-0.072-0.16-0.16s0.072-0.16 0.16-0.16h0.402c0.088 0 0.16 0.072 0.16 0.16s-0.072 0.16-0.16 0.16zM4.998 16.74h-0.563c-0.088 0-0.16-0.072-0.16-0.16s0.072-0.16 0.16-0.16h0.563c0.088 0 0.16 0.072 0.16 0.16s-0.072 0.16-0.16 0.16zM22.31 7.138h-3.21c-0.088 0-0.16-0.072-0.16-0.16s0.072-0.16 0.16-0.16h3.21c0.088 0 0.16 0.072 0.16 0.16s-0.071 0.16-0.16 0.16zM23.232 7.138h-0.463c-0.088 0-0.16-0.072-0.16-0.16s0.072-0.16 0.16-0.16h0.463c0.088 0 0.16 0.072 0.16 0.16s-0.072 0.16-0.16 0.16zM24.53 7.138h-0.815c-0.088 0-0.16-0.072-0.16-0.16s0.072-0.16 0.16-0.16h0.815c0.088 0 0.16 0.072 0.16 0.16s-0.072 0.16-0.16 0.16zM23.881 5.944h-3.077c-0.088 0-0.16-0.072-0.16-0.16s0.072-0.16 0.16-0.16h3.077c0.088 0 0.16 0.072 0.16 0.16s-0.071 0.16-0.16 0.16zM20.25 5.944h-0.186c-0.088 0-0.16-0.072-0.16-0.16s0.072-0.16 0.16-0.16h0.186c0.088 0 0.16 0.072 0.16 0.16s-0.071 0.16-0.16 0.16zM19.489 5.944h-0.466c-0.088 0-0.16-0.072-0.16-0.16s0.072-0.16 0.16-0.16h0.466c0.088 0 0.16 0.072 0.16 0.16s-0.071 0.16-0.16 0.16zM23.061 6.541h-1.609c-0.088 0-0.16-0.072-0.16-0.16s0.072-0.16 0.16-0.16h1.609c0.088 0 0.16 0.072 0.16 0.16s-0.072 0.16-0.16 0.16z"></path>
<path fill="#fff" style="fill: var(--color4, #fff)" d="M23.061 5.944h-0.402c-0.088 0-0.16-0.072-0.16-0.16s0.072-0.16 0.16-0.16h0.402c0.088 0 0.16 0.072 0.16 0.16s-0.072 0.16-0.16 0.16zM20.987 6.541h-0.563c-0.088 0-0.16-0.072-0.16-0.16s0.072-0.16 0.16-0.16h0.563c0.088 0 0.16 0.072 0.16 0.16s-0.071 0.16-0.16 0.16z"></path>
<path fill="#fdfcee" style="fill: var(--color5, #fdfcee)" d="M9.193 14.943h8.072v6.798h-8.072z"></path>
<path fill="#472b29" style="fill: var(--color3, #472b29)" d="M17.426 21.9h-8.393v-7.118h8.393v7.118zM9.353 21.58h7.753v-6.478h-7.753v6.478z"></path>
<path fill="#472b29" style="fill: var(--color3, #472b29)" d="M16.841 21.964h-7.648c-0.124 0-0.224-0.1-0.224-0.224v-6.798c0-0.124 0.1-0.224 0.224-0.224s0.224 0.1 0.224 0.224v6.574h7.424c0.124 0 0.224 0.1 0.224 0.224s-0.1 0.224-0.224 0.224z"></path>
<path fill="#fdfcee" style="fill: var(--color5, #fdfcee)" d="M17.266 14.943h7.435v7.223h-7.435z"></path>
<path fill="#472b29" style="fill: var(--color3, #472b29)" d="M24.7 22.389h-7.435c-0.124 0-0.224-0.1-0.224-0.224v-7.223c0-0.124 0.1-0.224 0.224-0.224h7.435c0.124 0 0.224 0.1 0.224 0.224v7.223c0 0.124-0.1 0.224-0.224 0.224zM17.49 21.941h6.987v-6.775h-6.987v6.775z"></path>
<path fill="#cdcbbd" style="fill: var(--color6, #cdcbbd)" d="M17.478 15.155h7.010v0.637h-7.010z"></path>
<path fill="#ee3e54" style="fill: var(--color7, #ee3e54)" d="M9.199 14.943h-0.66l1.55-4.036h14.186l1.196 4.036h-0.288z"></path>
<path fill="#472b29" style="fill: var(--color3, #472b29)" d="M25.472 15.167h-16.932c-0.074 0-0.143-0.036-0.185-0.097s-0.051-0.139-0.024-0.207l1.55-4.036c0.033-0.087 0.116-0.144 0.209-0.144h14.186c0.099 0 0.187 0.065 0.215 0.16l1.196 4.036c0.020 0.068 0.007 0.141-0.035 0.198s-0.109 0.090-0.18 0.090zM8.866 14.718h16.306l-1.063-3.588h-13.865l-1.378 3.588z"></path>
<path fill="#c0e5e4" style="fill: var(--color8, #c0e5e4)" d="M22.47 17.811v2.762h-2.974v-3.399h2.549z"></path>
<path fill="#472b29" style="fill: var(--color3, #472b29)" d="M22.47 20.684h-2.974c-0.062 0-0.112-0.050-0.112-0.112v-3.399c0-0.062 0.050-0.112 0.112-0.112h2.549c0.062 0 0.112 0.050 0.112 0.112s-0.050 0.112-0.112 0.112h-2.437v3.175h2.75v-2.65c0-0.062 0.050-0.112 0.112-0.112s0.112 0.050 0.112 0.112v2.762c0 0.062-0.050 0.112-0.112 0.112z"></path>
<path fill="#472b29" style="fill: var(--color3, #472b29)" d="M20.983 20.684c-0.062 0-0.112-0.050-0.112-0.112v-3.399c0-0.062 0.050-0.112 0.112-0.112s0.112 0.050 0.112 0.112v3.399c0 0.062-0.050 0.112-0.112 0.112z"></path>
<path fill="#b2b1c2" style="fill: var(--color9, #b2b1c2)" d="M13.763 21.634v-3.276c0-0.769-0.669-1.397-1.487-1.397s-1.487 0.629-1.487 1.397v3.276h2.974z"></path>
<path fill="#472b29" style="fill: var(--color3, #472b29)" d="M13.763 21.746h-2.974c-0.062 0-0.112-0.050-0.112-0.112v-3.276c0-0.832 0.717-1.509 1.599-1.509s1.599 0.677 1.599 1.509v3.276c0 0.062-0.050 0.112-0.112 0.112zM10.901 21.522h2.75v-3.164c0-0.709-0.617-1.286-1.375-1.286s-1.375 0.577-1.375 1.286v3.164z"></path>
<path fill="#c0e5e4" style="fill: var(--color8, #c0e5e4)" d="M13.126 19.085v-0.36c0-0.513-0.382-0.933-0.85-0.933s-0.85 0.42-0.85 0.933v0.36h1.699z"></path>
<path fill="#472b29" style="fill: var(--color3, #472b29)" d="M13.126 19.165h-1.7c-0.044 0-0.080-0.036-0.080-0.080v-0.359c0-0.558 0.417-1.013 0.93-1.013s0.93 0.454 0.93 1.013v0.359c0 0.044-0.036 0.080-0.080 0.080zM11.506 19.005h1.54v-0.279c0-0.47-0.345-0.853-0.77-0.853s-0.77 0.382-0.77 0.853v0.279zM13.338 20.015h-0.212c-0.044 0-0.080-0.036-0.080-0.080s0.036-0.080 0.080-0.080h0.212c0.044 0 0.080 0.036 0.080 0.080s-0.036 0.080-0.080 0.080z"></path>
<path fill="#cdcbbd" style="fill: var(--color6, #cdcbbd)" d="M9.405 15.155h7.648v0.425h-7.648z"></path>
<path fill="#c0e5e4" style="fill: var(--color8, #c0e5e4)" d="M16.312 19.298h-1.487v-1.912h1.7v1.487z"></path>
<path fill="#472b29" style="fill: var(--color3, #472b29)" d="M16.312 19.41h-1.487c-0.062 0-0.112-0.050-0.112-0.112v-1.912c0-0.062 0.050-0.112 0.112-0.112h1.7c0.062 0 0.112 0.050 0.112 0.112v1.487c0 0.062-0.050 0.112-0.112 0.112s-0.112-0.050-0.112-0.112v-1.375h-1.475v1.688h1.375c0.062 0 0.112 0.050 0.112 0.112s-0.051 0.112-0.112 0.112z"></path>
<path fill="#472b29" style="fill: var(--color3, #472b29)" d="M15.675 19.41c-0.062 0-0.112-0.050-0.112-0.112v-1.912c0-0.062 0.050-0.112 0.112-0.112s0.112 0.050 0.112 0.112v1.912c0 0.062-0.050 0.112-0.112 0.112z"></path>
<path fill="#fdd4b2" style="fill: var(--color10, #fdd4b2)" d="M22.045 10.163h1.487v2.974h-1.487z"></path>
<path fill="#472b29" style="fill: var(--color3, #472b29)" d="M23.532 13.217h-1.487c-0.044 0-0.080-0.036-0.080-0.080v-2.974c0-0.044 0.036-0.080 0.080-0.080h1.487c0.044 0 0.080 0.036 0.080 0.080v2.974c0 0.044-0.036 0.080-0.080 0.080zM22.125 13.057h1.327v-2.814h-1.327v2.814z"></path>
<path fill="#fbb97f" style="fill: var(--color11, #fbb97f)" d="M23.745 10.375h-1.912c-0.117 0-0.212-0.096-0.212-0.212v0c0-0.117 0.096-0.212 0.212-0.212h1.912c0.117 0 0.212 0.096 0.212 0.212v0c0 0.117-0.096 0.212-0.212 0.212z"></path>
<path fill="#472b29" style="fill: var(--color3, #472b29)" d="M23.745 10.455h-1.912c-0.161 0-0.292-0.131-0.292-0.292s0.131-0.292 0.292-0.292h1.912c0.161 0 0.292 0.131 0.292 0.292s-0.131 0.292-0.292 0.292zM21.833 10.030c-0.073 0-0.132 0.060-0.132 0.132s0.060 0.132 0.132 0.132h1.912c0.073 0 0.132-0.060 0.132-0.132s-0.060-0.132-0.132-0.132h-1.912zM16.522 15.782h-0.637c-0.053 0-0.096-0.043-0.096-0.096s0.043-0.096 0.096-0.096h0.637c0.053 0 0.096 0.043 0.096 0.096s-0.043 0.096-0.096 0.096zM15.247 15.782h-5.948c-0.053 0-0.096-0.043-0.096-0.096s0.043-0.096 0.096-0.096h5.948c0.053 0 0.096 0.043 0.096 0.096s-0.043 0.096-0.096 0.096zM24.807 15.995h-5.523c-0.053 0-0.096-0.043-0.096-0.096s0.043-0.096 0.096-0.096h5.523c0.053 0 0.096 0.043 0.096 0.096s-0.043 0.096-0.096 0.096zM21.408 11.958h-11.047c-0.053 0-0.096-0.043-0.096-0.096s0.043-0.096 0.096-0.096h11.047c0.053 0 0.096 0.043 0.096 0.096s-0.043 0.096-0.096 0.096zM20.771 12.596h-10.621c-0.053 0-0.096-0.043-0.096-0.096s0.043-0.096 0.096-0.096h10.621c0.053 0 0.096 0.043 0.096 0.096s-0.043 0.096-0.096 0.096zM20.346 13.233h-10.409c-0.053 0-0.096-0.043-0.096-0.096s0.043-0.096 0.096-0.096h10.409c0.053 0 0.096 0.043 0.096 0.096s-0.043 0.096-0.096 0.096zM18.646 15.995h-0.425c-0.053 0-0.096-0.043-0.096-0.096s0.043-0.096 0.096-0.096h0.425c0.053 0 0.096 0.043 0.096 0.096s-0.043 0.096-0.096 0.096z"></path>
<path fill="#fdfcef" style="fill: var(--color2, #fdfcef)" d="M10.484 22.658c0.57 0 1.065 0 1.072 0 0.639 0 1.157-0.51 1.157-1.14 0-0.549-0.394-1.008-0.919-1.116 0.006-0.048 0.010-0.097 0.010-0.147 0-0.652-0.536-1.181-1.198-1.181-0.391 0-0.737 0.185-0.956 0.47-0.056-0.726-0.714-1.286-1.484-1.193-0.563 0.068-1.028 0.497-1.132 1.046-0.033 0.176-0.030 0.347 0.003 0.508-0.151-0.16-0.366-0.261-0.605-0.261-0.438 0-0.795 0.336-0.824 0.761-0.199-0.043-0.415-0.041-0.643 0.044-0.436 0.161-0.746 0.565-0.764 1.023-0.026 0.651 0.502 1.186 1.156 1.186 0.050 0 0.224 0 0.265 0h2.402zM8.523 22.658h0.109z"></path>
<path fill="#472b29" style="fill: var(--color3, #472b29)" d="M11.556 22.818h-1.072c-0.088 0-0.16-0.072-0.16-0.16s0.072-0.16 0.16-0.16h1.072c0.55 0 0.997-0.44 0.997-0.98 0-0.461-0.333-0.865-0.792-0.959-0.082-0.017-0.137-0.094-0.126-0.177 0.005-0.042 0.009-0.084 0.009-0.126 0-0.563-0.466-1.021-1.038-1.021-0.328 0-0.63 0.148-0.828 0.408-0.040 0.052-0.109 0.075-0.172 0.056s-0.109-0.075-0.114-0.141c-0.024-0.31-0.172-0.592-0.415-0.792-0.248-0.204-0.566-0.295-0.89-0.255-0.495 0.060-0.904 0.437-0.994 0.917-0.028 0.15-0.027 0.3 0.003 0.446 0.014 0.070-0.020 0.141-0.083 0.174s-0.141 0.020-0.19-0.032c-0.128-0.136-0.302-0.211-0.489-0.211-0.349 0-0.641 0.268-0.664 0.611-0.003 0.047-0.026 0.089-0.064 0.117s-0.084 0.038-0.13 0.028c-0.191-0.041-0.372-0.030-0.553 0.037-0.379 0.14-0.644 0.493-0.66 0.879-0.011 0.267 0.086 0.52 0.271 0.713 0.19 0.198 0.448 0.307 0.725 0.307h2.667c0.088 0 0.16 0.072 0.16 0.16s-0.072 0.16-0.16 0.16h-2.667c-0.365 0-0.704-0.144-0.955-0.405-0.247-0.257-0.374-0.593-0.36-0.947 0.020-0.514 0.369-0.982 0.868-1.167 0.184-0.068 0.373-0.092 0.566-0.076 0.108-0.426 0.498-0.739 0.956-0.739 0.146 0 0.29 0.033 0.42 0.094 0.003-0.070 0.011-0.14 0.025-0.21 0.116-0.616 0.638-1.1 1.27-1.175 0.412-0.052 0.814 0.066 1.131 0.325 0.223 0.183 0.386 0.428 0.47 0.698 0.24-0.194 0.539-0.301 0.857-0.301 0.749 0 1.358 0.602 1.358 1.341 0 0.009 0 0.017-0 0.026 0.534 0.172 0.909 0.672 0.909 1.236 0 0.717-0.591 1.3-1.317 1.3zM8.631 22.818h-0.109c-0.088 0-0.16-0.072-0.16-0.16s0.072-0.16 0.16-0.16h0.109c0.088 0 0.16 0.072 0.16 0.16s-0.072 0.16-0.16 0.16z"></path>
<path fill="#472b29" style="fill: var(--color3, #472b29)" d="M11.039 21.045c-0.006 0-0.012-0.001-0.018-0.002-0.043-0.010-0.070-0.052-0.060-0.096 0.012-0.050 0.029-0.1 0.052-0.146 0.184-0.376 0.692-0.514 1.133-0.309 0.040 0.019 0.058 0.066 0.039 0.106s-0.067 0.057-0.106 0.039c-0.363-0.169-0.776-0.064-0.922 0.234-0.017 0.035-0.030 0.073-0.039 0.111s-0.042 0.063-0.078 0.063zM9.477 22.818h-0.335c-0.088 0-0.16-0.072-0.16-0.16s0.072-0.16 0.16-0.16h0.335c0.088 0 0.16 0.072 0.16 0.16s-0.072 0.16-0.16 0.16z"></path>
</symbol>
<symbol id="icon-human" viewBox="0 0 32 32">
<path fill="#e8d47b" style="fill: var(--color1, #e8d47b)" d="M24.4 21.4c-1.434 0-2.6-1.166-2.6-2.6s1.166-2.6 2.6-2.6c1.847 0 2.6 0.483 2.6 1.667 0 1.395-1.165 3.533-2.6 3.533z"></path>
<path fill="#ba9b48" style="fill: var(--color2, #ba9b48)" d="M24.4 16.4c1.992 0 2.4 0.586 2.4 1.467 0 1.456-1.164 3.333-2.4 3.333-1.323 0-2.4-1.077-2.4-2.4s1.077-2.4 2.4-2.4zM24.4 16c-1.546 0-2.8 1.254-2.8 2.8s1.254 2.8 2.8 2.8 2.8-2.187 2.8-3.733c0-1.546-1.254-1.867-2.8-1.867v0z"></path>
<path fill="#e8d47b" style="fill: var(--color1, #e8d47b)" d="M7.6 21.4c-1.435 0-2.6-2.138-2.6-3.533 0-1.184 0.753-1.667 2.6-1.667 1.434 0 2.6 1.166 2.6 2.6s-1.166 2.6-2.6 2.6z"></path>
<path fill="#ba9b48" style="fill: var(--color2, #ba9b48)" d="M7.6 16.4c1.323 0 2.4 1.077 2.4 2.4s-1.077 2.4-2.4 2.4c-1.236 0-2.4-1.878-2.4-3.333 0-0.88 0.408-1.467 2.4-1.467zM7.6 16c-1.546 0-2.8 0.32-2.8 1.867s1.254 3.733 2.8 3.733 2.8-1.254 2.8-2.8c0-1.546-1.254-2.8-2.8-2.8v0z"></path>
<path fill="#ffeea3" style="fill: var(--color3, #ffeea3)" d="M16 31c-1.063 0-2.086-0.454-2.807-1.245l-0.034-0.037-0.047-0.017c-3.417-1.218-5.713-4.474-5.713-8.102v-11.695c0-2.202 1.792-3.994 3.994-3.994h9.212c2.202 0 3.994 1.792 3.994 3.994v11.695c0 3.628-2.296 6.884-5.713 8.102l-0.047 0.017-0.034 0.037c-0.72 0.791-1.744 1.245-2.806 1.245z"></path>
<path fill="#ba9b48" style="fill: var(--color2, #ba9b48)" d="M20.606 6.111c2.092 0 3.794 1.702 3.794 3.794v11.695c0 3.544-2.242 6.724-5.58 7.914l-0.094 0.034-0.067 0.074c-0.683 0.749-1.652 1.179-2.659 1.179s-1.976-0.43-2.658-1.179l-0.067-0.074-0.094-0.034c-3.338-1.19-5.58-4.37-5.58-7.913v-11.695c0-2.092 1.702-3.794 3.794-3.794h9.212zM20.606 5.711h-9.212c-2.316 0-4.194 1.878-4.194 4.194v11.695c0 3.824 2.439 7.076 5.846 8.29 0.731 0.802 1.782 1.31 2.954 1.31s2.223-0.507 2.954-1.31c3.407-1.214 5.846-4.467 5.846-8.29v-11.695c0-2.316-1.878-4.194-4.194-4.194v0z"></path>
<path fill="#e0ac89" style="fill: var(--color4, #e0ac89)" d="M7.34 19.8c-0.337-0.926-2.34-6.547-2.34-9.4 0-5.444 4.164-6.636 5.769-6.636h0.1l0.060-0.079c0.758-1.003 2.53-2.684 5.872-2.684 6.385 0 10.2 4.779 10.2 9.4 0 3.622-1.988 8.568-2.333 9.4h-0.067v-3.465c0-4.093-3.736-4.535-5.343-4.535-5.156 0-7.878-3.098-7.905-3.13l-0.086-0.1-0.126 0.040c-0.038 0.012-3.74 1.239-3.74 5.638v5.552h-0.060z"></path>
<path fill="#a16a4a" style="fill: var(--color5, #a16a4a)" d="M16.8 1.2c6.26 0 10 4.678 10 9.2 0 2.946-1.335 6.792-2 8.525v-2.59c0-3.009-2.020-4.734-5.543-4.734-5.055 0-7.728-3.030-7.753-3.060l-0.172-0.201-0.252 0.080c-0.039 0.012-3.879 1.285-3.879 5.829v4.556c-0.669-1.944-2-6.099-2-8.404 0-5.28 4.020-6.436 5.569-6.436h0.199l0.12-0.159c0.736-0.973 2.456-2.605 5.712-2.605zM16.8 0.8c-3.835 0-5.606 2.201-6.031 2.764-1.683 0-5.969 1.25-5.969 6.836 0 3.172 2.4 9.6 2.4 9.6h0.4c0 0 0-4.531 0-5.752 0-4.304 3.6-5.448 3.6-5.448s2.74 3.2 8.057 3.2c2.43 0 5.143 0.924 5.143 4.334 0 1.11 0 3.666 0 3.666h0.4c0 0 2.4-5.565 2.4-9.6 0-4.595-3.738-9.6-10.4-9.6v0z"></path>
<path fill="#36404d" style="fill: var(--color6, #36404d)" d="M20.4 18.4c-0.663 0-1.2 0.537-1.2 1.2s0.537 1.2 1.2 1.2v0c0.663 0 1.2-0.537 1.2-1.2s-0.537-1.2-1.2-1.2v0zM11.6 18.4c-0.663 0-1.2 0.537-1.2 1.2s0.537 1.2 1.2 1.2v0c0.663 0 1.2-0.537 1.2-1.2s-0.537-1.2-1.2-1.2v0z"></path>
</symbol>
</defs>
</svg>
